<svg width="161" height="32" viewBox="0 0 161 32" fill="none" xmlns="http://www.w3.org/2000/svg">
<g clip-path="url(#clip0_39_1830)">
<path opacity="0.5" fill-rule="evenodd" clip-rule="evenodd" d="M13.561 12.1909C12.2865 13.4674 11.4532 15.1887 11.1328 17.122H10.7672C9.46831 17.0194 8.40831 16.0574 8.35681 14.5845L8.36146 12.0815H12.3144H13.6749L13.561 12.1909Z" fill="#5066EE"/>
<path fill-rule="evenodd" clip-rule="evenodd" d="M19.9636 31.7581C20.4275 31.6471 20.8835 31.5163 21.3309 31.3662C27.7276 29.2202 32.3345 23.1976 32.3345 16.1028C32.3345 7.20937 25.096 0.000244141 16.1673 0.000244141C7.23816 0.000244141 0.00012207 7.20937 0.00012207 16.1028C0.00012207 23.3633 4.8252 29.5006 11.4553 31.5096C12.2536 31.7379 13.0489 31.9481 13.8645 31.9893C14.0228 31.9999 14.1744 32.0032 14.3149 31.9965C14.9254 31.9763 15.4817 31.8585 15.9913 31.6395C16.0461 31.6168 16.1014 31.5932 16.1563 31.5689V31.5651C16.711 31.2964 17.2079 30.9008 17.6566 30.3685C18.2434 29.6289 18.6474 28.7123 18.6524 27.4101V18.7139C18.6461 17.8654 19.3447 17.1132 20.2595 17.1132H21.4601C22.9089 17.1216 23.9773 15.8918 23.9858 14.6317V12.0774L21.5373 12.0795L19.975 12.0816C19.4946 12.0795 19.0024 12.1342 18.4962 12.254C17.4987 12.5016 16.5641 12.9604 15.7228 13.7315C15.0296 14.3849 14.4576 15.1593 14.0709 16.2C13.8164 16.8769 13.7066 17.6358 13.6927 18.5011V26.3821C13.6957 26.5625 13.6395 26.6642 13.5601 26.7353C13.4685 26.827 13.3622 26.8572 13.2271 26.8425C12.6141 26.676 12.0219 26.4599 11.4553 26.1975C7.63835 24.427 4.99194 20.5727 4.99194 16.1028C4.99194 9.95536 9.99516 4.97213 16.1673 4.97213C22.339 4.97213 27.3422 9.95536 27.3422 16.1028C27.3422 20.2304 25.0863 23.8337 21.7349 25.7556C21.5825 25.8431 21.4327 25.9242 21.2722 26.0067C21.3541 26.9687 21.2938 28.0105 21.1283 28.9389C21.0409 29.5788 20.6542 30.4921 20.2832 31.1896C20.2329 31.2884 20.0223 31.6664 19.9636 31.7581Z" fill="#5066EE"/>
<path fill-rule="evenodd" clip-rule="evenodd" d="M53.5682 8.26465H38.2454V11.297H44.2533V26.4216H47.489V11.297H53.5682V8.26465Z" fill="#37383B"/>
<mask id="mask0_39_1830" style="mask-type:alpha" maskUnits="userSpaceOnUse" x="0" y="0" width="161" height="32">
<path d="M0 32H161V0H0V32Z" fill="white"/>
</mask>
<g mask="url(#mask0_39_1830)">
<path fill-rule="evenodd" clip-rule="evenodd" d="M67.9059 26.4212H70.7612V8.23486H67.9059V26.4212Z" fill="#37383B"/>
<path fill-rule="evenodd" clip-rule="evenodd" d="M125.319 23.3149C121.784 23.3149 119.035 20.5769 119.035 17.0564C119.035 13.536 121.784 10.8842 125.319 10.8842C128.853 10.8842 131.516 13.536 131.516 17.0564C131.516 20.5769 128.853 23.3149 125.319 23.3149ZM125.319 7.69165C120.19 7.69165 115.916 11.9483 115.916 17.0564C115.916 22.165 120.19 26.4217 125.319 26.4217C130.447 26.4217 134.721 22.165 134.721 17.0564C134.721 11.9483 130.447 7.69165 125.319 7.69165Z" fill="#37383B"/>
<path fill-rule="evenodd" clip-rule="evenodd" d="M57.8962 23.5143C55.5133 23.5143 53.5815 21.5903 53.5815 19.2168C53.5815 16.8438 55.5133 14.9202 57.8962 14.9202C60.2792 14.9202 62.211 16.8438 62.211 19.2168C62.211 21.5903 60.2792 23.5143 57.8962 23.5143ZM62.2722 13.5045C61.0623 12.5959 59.5565 12.0569 57.9245 12.0569C53.9311 12.0569 50.6941 15.2809 50.6941 19.2584C50.6941 23.2355 53.9311 26.46 57.9245 26.46C59.5565 26.46 61.0623 25.921 62.2722 25.0124V26.4461H65.1706V12.0754H62.2722V13.5045Z" fill="#37383B"/>
<path fill-rule="evenodd" clip-rule="evenodd" d="M144.056 12.0602C142.343 12.038 140.944 12.4736 139.741 13.3712V12.0628H136.854V19.2332V26.4213H139.741V24.9762V19.2332C139.76 16.211 141.638 15.0131 144.056 14.9357C144.7 14.9151 145.621 14.9202 145.621 14.9202V12.0569C145.043 12.0569 144.68 12.0687 144.056 12.0602Z" fill="#37383B"/>
<path fill-rule="evenodd" clip-rule="evenodd" d="M110.034 8.25854H107.118L107.121 12.0103L104.277 12.0288V14.8546H107.124L107.129 21.6471C107.137 22.8757 107.153 23.6649 107.708 24.5966C108.435 25.8176 110.173 26.4113 111.912 26.4214H113.823V23.5555H111.944C110.777 23.5669 110.073 23.022 110.045 21.6471L110.04 14.9278H113.823V12.0288H110.038L110.034 8.25854Z" fill="#37383B"/>
<path fill-rule="evenodd" clip-rule="evenodd" d="M97.1795 12.0233C95.3656 11.919 93.5415 12.6351 92.411 13.5327V12.025H89.4969V19.1954V26.4087H92.411V24.9384V19.1954C92.3219 16.7849 94.0759 14.8727 96.4783 14.845C99.1851 14.8134 100.522 16.7219 100.36 19.1954V24.9384V26.4369L103.272 26.4403V19.1883C103.305 16.8661 102.319 12.4173 97.1795 12.0233Z" fill="#37383B"/>
<path fill-rule="evenodd" clip-rule="evenodd" d="M153.815 23.5494C151.427 23.5494 149.484 21.6144 149.484 19.2359C149.484 16.8574 151.427 14.9221 153.815 14.9221C156.203 14.9221 158.145 16.8574 158.145 19.2359C158.145 21.6144 156.203 23.5494 153.815 23.5494ZM158.145 12.0764V13.5261C156.94 12.6167 155.44 12.0764 153.815 12.0764C149.851 12.0764 146.626 15.2883 146.626 19.2359C146.626 23.184 149.851 26.3959 153.815 26.3959C155.432 26.3959 156.926 25.8606 158.128 24.9596C157.946 27.6135 156.271 29.1238 153.468 29.1238C151.967 29.1238 150.63 28.4149 149.774 27.3167L147.123 28.5065C148.464 30.5874 150.807 31.9698 153.468 31.9698C155.654 31.9698 157.524 31.2803 158.874 29.9752C160.267 28.6293 161.003 26.7238 161.003 24.4647V19.2359V12.0764H158.145Z" fill="#37383B"/>
<path fill-rule="evenodd" clip-rule="evenodd" d="M76.1843 17.3186C76.8424 15.7566 78.3917 14.6597 80.1993 14.6597C82.0065 14.6597 83.5562 15.7566 84.2138 17.3186H76.1843ZM80.1993 11.6252C76.6921 11.6252 73.757 14.0563 72.995 17.3186C72.8688 17.8572 72.8004 18.4177 72.8004 18.9941C72.8004 19.399 72.8346 19.7964 72.8975 20.1828C73.4682 23.6873 76.5195 26.3639 80.1993 26.3639C82.7237 26.3639 84.9458 25.0991 86.2806 23.1768L83.4367 21.8852C82.6401 22.7702 81.4864 23.3295 80.1993 23.3295C78.2093 23.3295 76.533 21.9991 76.0142 20.1828H84.3844H87.5006C87.564 19.7964 87.5982 19.399 87.5982 18.9941C87.5982 18.4177 87.5294 17.8572 87.4036 17.3186C86.6412 14.0563 83.7064 11.6252 80.1993 11.6252Z" fill="#37383B"/>
</g>
</g>
<defs>
<clipPath id="clip0_39_1830">
<rect width="161" height="32" fill="white"/>
</clipPath>
</defs>
</svg>
